# xmcd
# 
# Track frame offsets:
#     150
#     20122
#     35070
#     52520
#     69929
#     84664
#     99911
#     121200
#     139782
#     158857
#     174704
# 
# Disc length: 2619
# 
# Revision: 2
# Processed by: cddbd v1.5.2PL0 Copyright (c) Steve Scherf et al.
# Submitted via: fre:ac v1.0.27
# 
DISCID=890a390b
DTITLE=Various Artist - Rec 46
DYEAR=0
DGENRE=Top 40
TTITLE0=The Sparks - Beat The Clock
TTITLE1=Five - Keep On Movin'
TTITLE2=Katy Perry - Last Friday Night
TTITLE3=Bruno Mars - Marry You
TTITLE4=Gilbert O'Sullivan - Matrimony
TTITLE5=Idool 2011 Finalisten - More To Me
TTITLE6=Neil Young - Rockin' In The Free World
TTITLE7=Gotye - Somebody That I Used To Know
TTITLE8=The Romantics - Talking In Your Sleep
TTITLE9=August - Thanks To You
TTITLE10=Clarence Clemons and Jackson Browne - You're A Friend Of Mine
EXTD=OTS
EXTT0=
EXTT1=
EXTT2=
EXTT3=
EXTT4=
EXTT5=
EXTT6=
EXTT7=
EXTT8=
EXTT9=
EXTT10=
PLAYORDER=
